<?xml version="1.0" standalone="no"?>
<!DOCTYPE svg PUBLIC "-//W3C//DTD SVG 20010904//EN"
 "http://www.w3.org/TR/2001/REC-SVG-20010904/DTD/svg10.dtd">
<svg version="1.0" xmlns="http://www.w3.org/2000/svg"
 width="512.000000pt" height="512.000000pt" viewBox="0 0 512.000000 512.000000"
 preserveAspectRatio="xMidYMid meet">
<metadata>
Created by potrace 1.14, written by Peter Selinger 2001-2017
</metadata>
<g transform="translate(0.000000,512.000000) scale(0.100000,-0.100000)"
fill="#000000" stroke="none">
<path d="M664 4392 c-78 -13 -132 -51 -166 -116 l-22 -41 -1 -1231 c0 -876 -3
-1235 -11 -1245 -6 -8 -112 -140 -235 -294 l-224 -280 -3 -140 c-5 -181 1
-215 41 -259 62 -67 -138 -63 2527 -61 2708 1 2456 -6 2516 72 l29 38 2 169 3
170 -27 35 c-15 20 -117 149 -227 286 -109 138 -204 256 -210 264 -8 10 -11
367 -11 1245 -1 1174 -2 1233 -19 1269 -26 52 -89 104 -139 113 -39 7 -3780
13 -3823 6z m3684 -1308 l0 -1014 -1788 0 -1788 0 0 1014 0 1013 1788 0 1789
0 -1 -1013z m-1308 -2032 l0 -127 -477 0 -478 0 -3 128 -3 127 481 0 480 0 0
-128z"/>
<path d="M2645 3527 c-8 -22 -165 -479 -225 -652 -32 -93 -76 -222 -98 -287
l-40 -116 56 -4 c117 -7 113 -9 150 100 128 376 195 570 202 587 8 17 130 375
130 380 0 1 -39 2 -86 3 -57 0 -87 -3 -89 -11z"/>
<path d="M1885 3338 c-88 -60 -191 -130 -230 -156 -38 -26 -74 -50 -80 -54 -5
-5 -32 -23 -60 -42 l-50 -33 0 -58 0 -58 175 -119 c96 -65 183 -125 193 -133
9 -8 20 -15 23 -15 5 0 93 -59 104 -70 6 -6 59 -43 78 -54 9 -5 12 13 12 83
l0 90 -77 54 c-43 29 -130 89 -193 132 -63 42 -119 81 -123 85 -7 6 47 45 295
213 49 33 92 66 94 72 3 7 4 48 2 92 l-3 81 -160 -110z"/>
<path d="M3051 3360 l2 -91 185 -127 c102 -70 194 -131 204 -136 15 -7 2 -19
-75 -71 -50 -34 -141 -96 -202 -137 l-110 -76 -1 -86 c-1 -50 2 -86 8 -86 5 0
20 8 33 18 28 21 8 7 300 206 l240 164 1 56 1 57 -83 57 c-47 31 -162 110
-257 174 -94 65 -176 121 -182 125 -5 5 -23 16 -38 26 l-28 18 2 -91z"/>
</g>
</svg>
